<?xml version="1.0" encoding="UTF-8"?>
<svg version="1.1" xmlns="http://www.w3.org/2000/svg" width="500" height="500">
<path d="M0 0 C165 0 330 0 500 0 C500 165 500 330 500 500 C335 500 170 500 0 500 C0 335 0 170 0 0 Z " fill="#23A49C" transform="translate(0,0)"/>
<path d="M0 0 C0.98871094 0.495 1.97742188 0.99 2.99609375 1.5 C15.42007079 7.98513979 40.1362512 22.97716463 44.734375 37.28515625 C44.82203125 37.85105469 44.9096875 38.41695312 45 39 C41.47813011 36.99697795 38.26136708 34.73586979 35.04003906 32.28173828 C23.55659844 23.56170865 11.27871914 16.62195376 -2 11 C-2.72316406 10.65453125 -3.44632813 10.3090625 -4.19140625 9.953125 C-12.95077806 5.99236557 -22.59935662 4.69196831 -32 3 C-33.54494141 2.70416016 -33.54494141 2.70416016 -35.12109375 2.40234375 C-47.5768951 0.66157368 -59.82504732 2.32459412 -72 5 C-72.67417969 5.14453613 -73.34835938 5.28907227 -74.04296875 5.43798828 C-96.75191914 10.3959627 -119.16829956 19.87828443 -137 35 C-138.33417969 36.10988281 -138.33417969 36.10988281 -139.6953125 37.2421875 C-148.66116418 44.97690731 -154.68955649 52.94137152 -159 64 C-159.36222656 64.92683594 -159.72445312 65.85367188 -160.09765625 66.80859375 C-161.19700473 70.69676566 -161.45052764 74.35486603 -161.625 78.375 C-161.66367188 79.11105469 -161.70234375 79.84710938 -161.7421875 80.60546875 C-161.83557998 82.40327406 -161.9188371 84.20160108 -162 86 C-161.30028076 85.80365967 -160.60056152 85.60731934 -159.87963867 85.4050293 C-156.64903997 84.49877859 -153.41827099 83.59313631 -150.1875 82.6875 C-149.08728516 82.37876953 -147.98707031 82.07003906 -146.85351562 81.75195312 C-139.90996678 79.80612085 -132.9598546 77.88669176 -126 76 C-130.68772758 88.16424518 -141.31237462 98.50156631 -153 104 C-145.96565098 102.42443314 -139.8773609 99.10048435 -134 95 C-132.67488335 94.3171471 -131.34292666 93.64712457 -130 93 C-125.39834424 98.01504327 -120.89367713 103.07195987 -116.625 108.375 C-112.94363311 112.92860712 -109.07225527 117.23582516 -105.08642578 121.51904297 C-101.30523247 125.60642715 -97.80317332 129.88034173 -94.3125 134.21875 C-91.80028621 137.24019632 -89.1759428 140.12436687 -86.5 143 C-82.25516246 147.56292423 -78.24628178 152.257678 -74.36328125 157.13671875 C-73.58339844 158.08160156 -72.80351562 159.02648437 -72 160 C-71.59962524 160.72890945 -71.19925049 161.45781891 -70.78674316 162.20881653 C-68.45432913 165.77415377 -66.19979411 168.44264032 -61.92352867 169.52611351 C-55.37399005 170.40170113 -48.76047377 170.20919766 -42.16796875 170.125 C-40.00856704 170.12598465 -37.84916484 170.12993851 -35.68977356 170.13671875 C-31.16942233 170.14095502 -26.65068033 170.11378356 -22.13061523 170.06347656 C-16.36012903 170.00111708 -10.59243794 170.00973332 -4.82178783 170.04122925 C-0.3629487 170.05882861 4.09525174 170.04195645 8.55402184 170.0145874 C10.6800897 170.00494233 12.80622583 170.00498154 14.93229103 170.01519775 C31.27265974 170.13064282 31.27265974 170.13064282 45 162 C46.56621094 160.89591797 46.56621094 160.89591797 48.1640625 159.76953125 C63.97175024 147.19865576 73.01720066 129.41514409 76.59765625 109.7109375 C77.09313916 105.14094948 77.10789504 100.65438317 77.0625 96.0625 C77.05573242 94.75055664 77.05573242 94.75055664 77.04882812 93.41210938 C77.03714834 91.27470953 77.01921689 89.13734537 77 87 C77.66 87 78.32 87 79 87 C80.57647535 88.98929053 82.01638374 90.96641091 83.4375 93.0625 C83.83259766 93.62388672 84.22769531 94.18527344 84.63476562 94.76367188 C92.41814253 106.09554341 94.44482776 118.50790281 93 132 C88.80979177 151.50882995 77.23122937 170.13017155 60.6484375 181.34375 C50.00471698 188 50.00471698 188 46 188 C49.80392227 191.85387997 53.71083473 195.5750749 57.6875 199.25 C58.26822266 199.79140625 58.84894531 200.3328125 59.44726562 200.890625 C62.48578172 203.77284245 62.48578172 203.77284245 66 206 C64.90037413 212.21755668 63.72840141 218.41747502 62.4921875 224.609375 C62.22513882 225.95440295 61.95821321 227.29945533 61.69140625 228.64453125 C61.28214746 230.70756983 60.87092742 232.77011749 60.45361328 234.83154297 C60.0436169 236.86047488 59.6421929 238.89095289 59.2421875 240.921875 C58.88423096 242.70996582 58.88423096 242.70996582 58.51904297 244.53417969 C57.68075737 250.13168784 57.47779611 254.71509564 59.828125 259.92578125 C60.21613281 260.80556641 60.60414063 261.68535156 61.00390625 262.59179688 C61.41511719 263.48962891 61.82632812 264.38746094 62.25 265.3125 C63.04807685 267.09972422 63.84495644 268.88748356 64.640625 270.67578125 C65.23738037 272.00790649 65.23738037 272.00790649 65.84619141 273.36694336 C67.29530852 276.67391078 68.62947972 280.01921309 69.95507812 283.37719727 C71.94876776 288.3814514 74.04599038 293.34323517 76.125 298.3125 C77.00293109 300.41262378 77.88054687 302.51287941 78.7578125 304.61328125 C79.1408252 305.52891846 79.52383789 306.44455566 79.91845703 307.38793945 C80.27536621 308.24991943 80.63227539 309.11189941 81 310 C81.37600342 310.86093262 81.75200684 311.72186523 82.1394043 312.60888672 C83.37397051 316.03905451 82.99331589 319.24885017 82.6875 322.8125 C82.57663265 324.32290271 82.46596062 325.83331977 82.35546875 327.34375 C82.29536621 328.11203125 82.23526367 328.8803125 82.17333984 329.671875 C82.00315949 331.95756487 81.86436878 334.24273643 81.73828125 336.53125 C81.69807861 337.25078857 81.65787598 337.97032715 81.61645508 338.71166992 C81.5780249 339.40494385 81.53959473 340.09821777 81.5 340.8125 C81.12307692 347.52307692 81.12307692 347.52307692 80.5 349.9375 C79.9761668 352.09831196 79.81126122 354.07343762 79.71875 356.29296875 C79.68136719 357.08767578 79.64398438 357.88238281 79.60546875 358.70117188 C79.53466004 360.37042173 79.46435444 362.039693 79.39453125 363.70898438 C79.10197685 369.89802315 79.10197685 369.89802315 78 371 C75.30345146 371.07319621 72.63308542 371.09242537 69.9375 371.0625 C69.17888672 371.05798828 68.42027344 371.05347656 67.63867188 371.04882812 C65.75908129 371.0370068 63.87953101 371.01907078 62 371 C61.66432191 363.03696979 62.40383177 355.25793096 63.21606445 347.35058594 C63.94257283 340.0970646 64.37871899 332.8563171 64.65795898 325.57250977 C64.83235261 321.30141899 65.18243261 317.20945855 66 313 C65.13785889 312.5973291 65.13785889 312.5973291 64.25830078 312.18652344 C61.93711644 310.96696064 59.9609624 309.59208043 57.8671875 308.015625 C57.07054687 307.4175 56.27390625 306.819375 55.453125 306.203125 C54.60234375 305.55859375 53.7515625 304.9140625 52.875 304.25 C51.98554688 303.5796875 51.09609375 302.909375 50.1796875 302.21875 C43.66856933 297.29841638 37.21940986 292.30198454 30.79248047 287.27246094 C24.42476941 282.30043167 17.96516829 277.45758444 11.48950195 272.62744141 C4.92540863 267.72086975 -1.55855405 262.71819927 -8.00195312 257.65429688 C-8.68837891 257.11611328 -9.37480469 256.57792969 -10.08203125 256.0234375 C-10.67218018 255.55856934 -11.2623291 255.09370117 -11.87036133 254.61474609 C-14.86492167 252.34419444 -17.94196445 250.18431111 -21 248 C-14.4 254.6 -7.8 261.2 -1 268 C-3.99528053 273.99056107 -8.88200817 277.36779116 -15 280 C-20.93831798 281.66787402 -27.12531457 281.9812747 -33.25 282.4375 C-34.84272954 282.58221977 -36.43518457 282.72999406 -38.02734375 282.88085938 C-41.93230303 283.24244315 -45.83924762 283.53951257 -49.7507019 283.82070923 C-51.93924915 283.99515757 -54.11679384 284.22020647 -56.29907227 284.4597168 C-65.31618241 285.37490721 -72.07662878 284.42980926 -80.4375 280.9375 C-82.58178555 280.10223356 -84.72631812 279.26760099 -86.87109375 278.43359375 C-88.42159424 277.81266846 -88.42159424 277.81266846 -90.00341797 277.17919922 C-94.29253606 275.491368 -98.639366 273.9908353 -103 272.5 C-109.85486957 270.14513043 -109.85486957 270.14513043 -111 269 C-110.89469734 257.39038191 -107.61324639 245.25706139 -105 234 C-106.41848562 235.41848562 -106.83341493 236.96096736 -107.55615234 238.83398438 C-107.8758902 239.65868729 -108.19562805 240.4833902 -108.52505493 241.33308411 C-109.0501918 242.69961372 -109.0501918 242.69961372 -109.5859375 244.09375 C-109.95447845 245.04646286 -110.32301941 245.99917572 -110.70272827 246.98075867 C-111.50592286 249.0581166 -112.30787854 251.13595386 -113.10876465 253.21420288 C-114.38688566 256.53084251 -115.66812387 259.84626256 -116.95019531 263.16137695 C-118.74049188 267.79151651 -120.52949654 272.42215185 -122.31738281 277.05322266 C-126.45417792 287.76751826 -130.60024996 298.47821611 -134.75 309.1875 C-135.14037445 310.19521454 -135.5307489 311.20292908 -135.93295288 312.24118042 C-143.53575477 331.86166402 -151.2432248 351.43994056 -159 371 C-165.27 371 -171.54 371 -178 371 C-175.5706282 359.56766211 -172.27698412 348.44288161 -168.95703125 337.24316406 C-167.99257551 333.97484007 -167.04096779 330.7030461 -166.09375 327.4296875 C-165.6301709 325.82927612 -165.6301709 325.82927612 -165.15722656 324.1965332 C-164.56964216 322.16671054 -163.98299328 320.13661673 -163.39746094 318.10620117 C-163.12708008 317.17525635 -162.85669922 316.24431152 -162.578125 315.28515625 C-162.31837891 314.38812988 -162.05863281 313.49110352 -161.79101562 312.56689453 C-161.0455646 310.14785994 -160.18324527 307.80364822 -159.296875 305.43359375 C-156.56795691 297.25009992 -158.14697134 288.63676965 -159.49609375 280.3046875 C-159.64909439 279.31356964 -159.80209503 278.32245178 -159.95973206 277.30130005 C-160.44520955 274.15804215 -160.940152 271.01640001 -161.4375 267.875 C-167.37706234 230.33860212 -167.37706234 230.33860212 -164.62939453 225.67236328 C-162.88056752 223.87741797 -161.01730037 222.48273528 -159 221 C-157.86247606 219.78027736 -156.75874057 218.52833003 -155.6875 217.25 C-152.84271749 213.95133084 -149.93700707 210.71693361 -147 207.5 C-144.09630963 204.31559032 -141.20825953 201.12225179 -138.375 197.875 C-137.85357422 197.29097412 -137.33214844 196.70694824 -136.79492188 196.10522461 C-134.96352706 194.01751342 -134.96352706 194.01751342 -133.35986328 191.70776367 C-130.62951745 188.11883023 -128.49025916 185.47071392 -124.10302734 184.08496094 C-120.88107348 183.67236613 -117.74724679 183.49770613 -114.5 183.4375 C-113.39140625 183.38271484 -112.2828125 183.32792969 -111.140625 183.27148438 C-108.42628744 183.14278734 -105.71668668 183.0533498 -103 183 C-107.31104379 182.70709956 -111.61951287 182.53120625 -115.9375 182.375 C-117.14986328 182.29121094 -118.36222656 182.20742187 -119.61132812 182.12109375 C-126.62235671 181.91141656 -126.62235671 181.91141656 -132.68286133 185.04858398 C-134.97343292 187.59757904 -136.99791534 190.22085052 -139 193 C-140.0070843 194.13932769 -141.03170454 195.26369034 -142.08203125 196.36328125 C-142.53312256 196.85127197 -142.98421387 197.3392627 -143.44897461 197.84204102 C-143.89893799 198.32729248 -144.34890137 198.81254395 -144.8125 199.3125 C-147.97348847 202.72316186 -151.12962658 206.13730769 -154.2578125 209.578125 C-154.79043701 210.16166748 -155.32306152 210.74520996 -155.87182617 211.34643555 C-156.88529362 212.4572515 -157.89605858 213.57054168 -158.90356445 214.68676758 C-161.73748144 217.7846254 -164.69981073 220.41506482 -168 223 C-168.28009143 214.76736567 -168.49225518 206.53677287 -168.62174606 198.30052757 C-168.68395209 194.47433687 -168.76804764 190.65144188 -168.90527344 186.82714844 C-169.88840096 158.69363487 -169.88840096 158.69363487 -163.94659424 151.05728149 C-161.96043296 148.96404862 -159.88865929 147.1177891 -157.60803223 145.35235596 C-154.70619095 142.91190591 -152.3827486 139.93597482 -150 137 C-150.46047729 137.40496704 -150.92095459 137.80993408 -151.39538574 138.22717285 C-153.28127983 139.88422697 -155.17197057 141.53573678 -157.0625 143.1875 C-157.71927734 143.76564453 -158.37605469 144.34378906 -159.05273438 144.93945312 C-162.18601776 147.67142928 -165.22672503 150.17441798 -168.75390625 152.37890625 C-172.91580659 155.27647663 -174.22689809 159.09607412 -175.875 163.75 C-178.9744695 171.9744695 -178.9744695 171.9744695 -180 173 C-189.99886783 173.51122031 -200.0303786 172.72506337 -210 172 C-209.81896729 171.46560303 -209.63793457 170.93120605 -209.45141602 170.38061523 C-207.51891662 164.63526287 -205.69202043 158.86453302 -203.9375 153.0625 C-203.68162109 152.23298828 -203.42574219 151.40347656 -203.16210938 150.54882812 C-200.28677815 141.03584281 -198.69981979 131.71444267 -197.9375 121.8125 C-197.85371094 120.77947754 -197.76992187 119.74645508 -197.68359375 118.68212891 C-197.11904524 111.41687475 -196.76894332 104.15641383 -196.5 96.875 C-195.38037942 68.45716762 -184.42054818 45.30634012 -163.875 25.53125 C-153.17435966 16.11003405 -141.60603544 8.59671948 -129 2 C-128.08605469 1.50886719 -127.17210937 1.01773438 -126.23046875 0.51171875 C-86.29711825 -20.32587772 -39.87858175 -20.14160612 0 0 Z " fill="#1A1A1A" transform="translate(309,53)"/>
<path d="M0 0 C2.26780889 1.73199198 4.33777531 3.45999661 6.4375 5.375 C7.68012836 6.47510468 8.92498155 7.57270063 10.171875 8.66796875 C10.80544922 9.22532715 11.43902344 9.78268555 12.09179688 10.35693359 C15.04650522 12.90109776 18.11048866 15.2941268 21.1875 17.6875 C21.76040771 18.14608398 22.33331543 18.60466797 22.92358398 19.07714844 C25.6842102 21.27557786 28.37908171 23.23338172 31.39453125 25.08984375 C34.62985003 27.21009669 36.71986506 28.87396417 39 32 C39.08795353 34.73635379 38.94183704 36.76516047 38.47265625 39.41015625 C38.36417862 40.14413132 38.25570099 40.87810638 38.14393616 41.63432312 C37.90603776 43.23909834 37.65791832 44.84238327 37.40093994 46.44421387 C36.84389982 49.99505847 36.37664793 53.55621372 35.90280151 57.11895752 C35.39796219 60.89300382 34.86929059 64.66356207 34.34057617 68.43432617 C33.93174472 71.35359566 33.52726014 74.27344723 33.12304688 77.19335938 C32.86223642 79.06253591 32.6011782 80.9316779 32.33984375 82.80078125 C32.22003647 83.66737869 32.10022919 84.53397614 31.97679138 85.42683411 C31.86319778 86.23255356 31.74960419 87.03827301 31.63256836 87.8684082 C31.53423203 88.57214066 31.43589569 89.27587311 31.33457947 90.00093079 C30.99641791 92.02140253 30.4968524 94.01259038 30 96 C24.39 96 18.78 96 13 96 C14.05991293 82.33270174 15.6210011 68.82519881 17.76660156 55.28222656 C17.94030273 54.14624023 18.11400391 53.01025391 18.29296875 51.83984375 C18.4530542 50.83300537 18.61313965 49.82616699 18.77807617 48.78881836 C19.00866867 45.89106462 18.85631351 43.774197 18 41 C15.97975874 38.96201137 14.03896027 37.21819368 11.8125 35.4375 C10.53359968 34.37921371 9.25496135 33.32061076 7.9765625 32.26171875 C7.31817383 31.72337402 6.65978516 31.1850293 5.98144531 30.63037109 C2.84434725 28.04910682 -0.23304139 25.39951083 -3.3125 22.75 C-3.89169189 22.25395264 -4.47088379 21.75790527 -5.06762695 21.24682617 C-9.76306768 17.22187534 -14.40186921 13.13588484 -19 9 C-16.23997886 6.07425011 -13.47906555 3.80903454 -10.0625 1.6875 C-9.22847656 1.15511719 -8.39445312 0.62273437 -7.53515625 0.07421875 C-4.34858386 -1.27602379 -3.223773 -1.25152517 0 0 Z " fill="#191919" transform="translate(315,328)"/>
<path d="M0 0 C2.65283689 2.65283689 2.86372584 4.81747016 3.734375 8.46484375 C3.89298004 9.12174698 4.05158508 9.77865021 4.21499634 10.45545959 C4.73396443 12.61446732 5.24222131 14.77583563 5.75 16.9375 C6.10590484 18.43042864 6.46219066 19.9232665 6.81884766 21.41601562 C9.81417726 34.00473587 12.66151616 46.62666013 15.40136719 59.2734375 C15.79185579 61.05197614 16.19306143 62.82820557 16.60644531 64.6015625 C16.79045898 65.39304687 16.97447266 66.18453125 17.1640625 67 C17.32600098 67.680625 17.48793945 68.36125 17.65478516 69.0625 C18 71 18 71 18 75 C11.73 75 5.46 75 -1 75 C-2.26639074 71.83402316 -3.2665886 69.30655476 -3.99316406 66.08691406 C-4.1596344 65.35555237 -4.32610474 64.62419067 -4.49761963 63.8706665 C-4.6685614 63.09350281 -4.83950317 62.31633911 -5.015625 61.515625 C-5.19510681 60.70059509 -5.37458862 59.88556519 -5.55950928 59.0458374 C-5.93529327 57.32509464 -6.30830418 55.60374421 -6.67871094 53.88183594 C-7.05841229 52.13261347 -7.44639128 50.38516657 -7.84277344 48.63964844 C-8.41894572 46.10199781 -8.96983334 43.55996165 -9.515625 41.015625 C-9.6946637 40.24655823 -9.87370239 39.47749146 -10.0581665 38.68511963 C-11.67604523 30.86216029 -9.76229371 24.40573428 -6.8359375 17.08984375 C-6.43632812 16.08115234 -6.03671875 15.07246094 -5.625 14.03320312 C-5.2125 13.01162109 -4.8 11.99003906 -4.375 10.9375 C-3.95476562 9.88111328 -3.53453125 8.82472656 -3.1015625 7.73632812 C-2.07373243 5.15507306 -1.03978554 2.57645691 0 0 Z " fill="#1A1A1A" transform="translate(183,349)"/>
<path d="M0 0 C1.32953792 2.65907584 1.11986031 4.66565368 1.11352539 7.64306641 C1.11344986 8.82413971 1.11337433 10.00521301 1.11329651 11.22207642 C1.10813522 12.50230682 1.10297394 13.78253723 1.09765625 15.1015625 C1.0962413 16.40829926 1.09482635 17.71503601 1.09336853 19.06137085 C1.08954894 22.53676258 1.07972342 26.01211257 1.06866455 29.48748779 C1.05843843 33.03331945 1.05386833 36.57915785 1.04882812 40.125 C1.03810066 47.08335049 1.02103092 54.04167324 1 61 C2.32 60.34 3.64 59.68 5 59 C3.59284684 62.40062014 1.97131772 63.89229698 -1 66 C-1.02312659 57.54232666 -1.0409167 49.08466644 -1.05181217 40.62696934 C-1.05704031 36.70011342 -1.06413669 32.77327906 -1.07543945 28.84643555 C-1.0862708 25.05985743 -1.09227736 21.2733001 -1.09487724 17.48670769 C-1.09673105 16.03895681 -1.10035081 14.59120712 -1.10573006 13.14346504 C-1.11294367 11.12242865 -1.11340808 9.10137152 -1.11352539 7.08032227 C-1.115746 5.92782486 -1.11796661 4.77532745 -1.12025452 3.58790588 C-1 1 -1 1 0 0 Z " fill="#18090A" transform="translate(142,210)"/>
<path d="M0 0 C4.38456609 1.54456306 8.13131307 3.84547393 12 6.375 C12.90492188 6.95507812 12.90492188 6.95507812 13.828125 7.546875 C16.61304549 9.35101914 19.193088 11.16072382 21.75 13.2890625 C23.92689708 15.30264674 23.92689708 15.30264674 27 15 C29.1875 17.5 29.1875 17.5 31 20 C30.67 20.66 30.34 21.32 30 22 C29.00742187 21.23816406 28.01484375 20.47632812 26.9921875 19.69140625 C19.56694071 14.03516937 12.11150306 8.58964664 4.16748047 3.67993164 C2.76437364 2.80869063 1.37982369 1.90766527 0 1 C0 0.67 0 0.34 0 0 Z " fill="#191212" transform="translate(323,70)"/>
<path d="M0 0 C0.66 0.33 1.32 0.66 2 1 C2 1.33 2 1.66 2 2 C3.32 1.67 4.64 1.34 6 1 C3.74259377 3.33524782 1.7194239 5.18705073 -1 7 C-1.99 7 -2.98 7 -4 7 C-3.6875 4.625 -3.6875 4.625 -3 2 C-2.01 1.34 -1.02 0.68 0 0 Z " fill="#23ADA5" transform="translate(303,326)"/>
<path d="M0 0 C1.07310858 3.27185553 0.89263102 5.42947592 0.0625 8.75 C-0.22947266 9.94882812 -0.22947266 9.94882812 -0.52734375 11.171875 C-0.68332031 11.77515625 -0.83929688 12.3784375 -1 13 C-3 10 -3 10 -2.75 7.625 C-1.99786647 4.99253264 -1.07799802 2.51532871 0 0 Z " fill="#218C85" transform="translate(204,283)"/>
<path d="M0 0 C0.66 0 1.32 0 2 0 C2 2.97 2 5.94 2 9 C1.67 8.34 1.34 7.68 1 7 C0.01 7 -0.98 7 -2 7 C-1.34 4.69 -0.68 2.38 0 0 Z " fill="#22A29A" transform="translate(200,293)"/>
<path d="M0 0 C1.485 0.99 1.485 0.99 3 2 C2.625 4.9375 2.625 4.9375 2 8 C1.01 8.495 1.01 8.495 0 9 C-0.87890625 2.84765625 -0.87890625 2.84765625 -1 1 C-0.67 0.67 -0.34 0.34 0 0 Z " fill="#23ADA5" transform="translate(172,367)"/>
<path d="M0 0 C0 3 0 3 -1.53125 4.60546875 C-2.1809375 5.12753906 -2.830625 5.64960938 -3.5 6.1875 C-4.1496875 6.71730469 -4.799375 7.24710938 -5.46875 7.79296875 C-5.9740625 8.19128906 -6.479375 8.58960938 -7 9 C-7 6 -7 6 -5.46875 4.39453125 C-4.49421875 3.61142578 -4.49421875 3.61142578 -3.5 2.8125 C-2.8503125 2.28269531 -2.200625 1.75289062 -1.53125 1.20703125 C-1.0259375 0.80871094 -0.520625 0.41039062 0 0 Z " fill="#229F97" transform="translate(159,189)"/>
<path d="M0 0 C1.65 0.33 3.3 0.66 5 1 C3.68 2.32 2.36 3.64 1 5 C0.01 4.67 -0.98 4.34 -2 4 C-1.34 2.68 -0.68 1.36 0 0 Z " fill="#23ADA5" transform="translate(167,149)"/>
</svg>
